<?xml version="1.0" standalone="no"?>
<!DOCTYPE svg PUBLIC "-//W3C//DTD SVG 20010904//EN"
 "http://www.w3.org/TR/2001/REC-SVG-20010904/DTD/svg10.dtd">
<svg version="1.0" xmlns="http://www.w3.org/2000/svg"
 width="500.000000pt" height="500.000000pt" viewBox="0 0 500.000000 500.000000"
 preserveAspectRatio="xMidYMid meet">
<metadata>
Created by potrace 1.11, written by Peter Selinger 2001-2013
</metadata>
<g transform="translate(0.000000,500.000000) scale(0.100000,-0.100000)"
fill="#000000" stroke="none">
<path d="M2366 4989 c-27 -4 -63 -10 -80 -12 -185 -27 -207 -33 -351 -93 -200
-83 -368 -197 -503 -342 -104 -112 -248 -297 -285 -363 -38 -70 -112 -210
-140 -264 -14 -27 -62 -140 -107 -250 -77 -186 -106 -261 -174 -455 -15 -41
-31 -84 -36 -95 -5 -11 -58 -157 -118 -325 -123 -343 -212 -619 -237 -730 -21
-96 -31 -144 -44 -200 -16 -71 -26 -224 -24 -347 10 -450 293 -898 665 -1052
291 -121 601 -111 803 27 60 41 76 59 111 123 40 71 41 77 38 150 -2 43 -13
108 -25 145 -21 68 -130 296 -210 444 -168 309 -295 597 -377 851 -87 271
-139 622 -134 899 2 81 11 208 18 243 2 12 7 38 10 57 21 129 85 372 111 423
7 15 11 27 7 27 -4 0 -2 6 3 13 6 6 16 30 23 52 7 22 39 90 73 150 113 207
278 395 442 504 336 223 676 260 1083 117 105 -37 302 -148 372 -210 20 -17
57 -49 84 -71 27 -22 60 -50 75 -62 32 -28 32 -28 54 -3 9 11 27 20 40 20 22
0 23 2 20 93 -5 119 -7 129 -40 148 -15 9 -103 63 -194 121 -155 98 -179 109
-350 169 -101 35 -189 64 -195 65 -6 1 -37 5 -70 8 -32 4 -95 11 -139 16 -132
17 -148 17 -199 9z"/>
<path d="M2275 4714 c-38 -8 -79 -16 -90 -18 -95 -20 -314 -146 -405 -234 -19
-19 -52 -49 -72 -67 -75 -68 -218 -320 -234 -412 -3 -16 -12 -57 -20 -92 -34
-151 8 -290 115 -379 103 -86 170 -95 836 -107 121 -2 252 -8 290 -14 39 -5
95 -12 125 -16 135 -16 239 -37 411 -84 259 -72 482 -171 689 -307 85 -56 175
-121 200 -144 105 -100 196 -190 215 -212 112 -132 162 -198 194 -255 21 -37
49 -88 63 -113 35 -61 135 -325 142 -375 4 -22 13 -78 21 -125 15 -92 18 -313
5 -364 -5 -17 -11 -51 -14 -76 -11 -84 -16 -105 -47 -190 -39 -109 -35 -99
-61 -142 -13 -20 -36 -58 -52 -85 -70 -116 -260 -314 -376 -392 -47 -32 -112
-73 -145 -91 -33 -18 -75 -41 -92 -52 -18 -11 -117 -53 -220 -93 -128 -50
-187 -77 -184 -87 2 -7 6 -30 8 -51 l6 -38 136 6 c258 11 304 15 315 23 6 5
43 26 81 47 90 49 205 126 275 184 30 25 65 55 78 66 37 30 43 37 201 215 58
65 168 254 209 360 34 88 70 210 88 305 2 11 8 43 14 70 13 63 16 298 5 390
-4 39 -9 81 -10 95 -1 14 -14 81 -30 150 -28 125 -123 375 -185 485 -15 28
-38 68 -50 90 -90 162 -164 278 -248 386 -53 69 -136 177 -184 240 -48 63 -91
119 -95 124 -5 6 -58 75 -118 155 -60 80 -204 264 -321 410 -207 259 -250 305
-519 551 -39 36 -233 159 -250 159 -3 0 -28 11 -57 23 -72 32 -109 47 -133 51
-11 2 -67 14 -124 25 -121 25 -279 27 -386 5z"/>
<path d="M339 2472 c-8 -9 -53 -51 -99 -92 -171 -154 -163 -146 -152 -167 9
-16 8 -19 -10 -19 -11 1 -22 -6 -23 -14 -2 -8 -6 -33 -10 -55 -3 -22 -8 -56
-11 -75 -3 -19 -7 -46 -9 -60 -24 -132 -24 -501 0 -657 3 -18 7 -45 9 -60 16
-118 118 -378 203 -516 60 -98 215 -292 272 -342 19 -16 58 -50 87 -75 90 -78
345 -209 499 -255 33 -10 78 -23 100 -30 22 -7 65 -16 95 -20 30 -4 98 -12
150 -19 125 -16 429 -11 525 8 11 2 47 7 80 10 33 4 74 9 90 11 17 2 50 7 75
10 25 3 56 7 70 10 13 2 42 7 65 11 22 3 92 14 155 25 63 11 131 22 150 25 19
3 42 7 50 9 8 2 35 7 60 10 25 3 70 10 100 16 162 28 217 37 270 44 25 3 52 8
60 10 8 2 38 6 65 10 128 15 374 71 510 117 238 81 390 166 562 317 175 154
318 380 359 568 2 12 8 33 14 47 5 13 12 50 15 83 4 32 10 77 15 100 8 45 7
64 -5 178 -8 80 -7 70 -34 193 -38 165 -166 383 -290 491 -77 66 -179 111
-254 112 -73 1 -161 -37 -226 -97 -45 -42 -93 -110 -161 -229 -49 -86 -81
-142 -90 -155 -5 -8 -37 -64 -72 -125 -34 -60 -68 -119 -75 -130 -7 -11 -16
-29 -22 -40 -5 -11 -65 -101 -135 -200 -69 -99 -131 -188 -138 -199 -35 -50
-85 -115 -117 -152 -68 -76 -142 -161 -154 -176 -36 -45 -381 -313 -457 -355
-30 -17 -91 -51 -136 -75 -44 -25 -143 -69 -220 -98 -121 -46 -157 -58 -234
-75 -8 -2 -58 -13 -110 -26 -128 -30 -397 -32 -543 -3 -21 4 -110 30 -212 61
-61 19 -280 133 -295 154 -3 3 -46 42 -97 85 -51 44 -105 97 -121 119 -115
161 -162 238 -185 305 -14 41 -37 105 -51 142 -13 36 -31 111 -40 165 -9 54
-18 109 -22 123 -6 27 -6 334 0 366 2 11 7 47 11 79 4 33 9 71 11 85 2 14 6
45 10 70 3 25 7 53 10 62 3 9 7 25 9 35 6 28 36 166 40 183 2 8 11 46 20 84 9
37 14 70 12 72 -1 2 -10 -4 -18 -14z"/>
</g>
</svg>
